# xmcd
#
# Track frame offsets:
#  150
#  17340
#  29854
#  45215
#  55424
#  75528
#  96749
#  122286
#  142651
#  162877
#  180139
#  201662
#  220758
#  244542
#
# Disc length: 3431 seconds
#
# Revision: 0
# Processed by: cddbd v1.5.2PL0 Copyright (c) Steve Scherf et al.
# Submitted via: AltoMP3_Maker 3.0
#
DISCID=af0d650e
DTITLE=Big Joe Fitz and The Lo-Fi's - This Is Big
DYEAR=1900
DGENRE=
TTITLE0=Leap of Faith
TTITLE1=The Chokin Kind
TTITLE2=Get It While You Can
TTITLE3=Hard Times
TTITLE4=Last Go Round
TTITLE5=You Mean Everything to Me
TTITLE6=I Cried Last Night
TTITLE7=Lonesome Train
TTITLE8=Body and Fender Man
TTITLE9=I Almost Lost My Mind
TTITLE10=Tweedle Dee
TTITLE11=Imitation of Love
TTITLE12=Kidney Stew
TTITLE13=I Choose to Sing the Blues
EXTD=
EXTT0=
EXTT1=
EXTT2=
EXTT3=
EXTT4=
EXTT5=
EXTT6=
EXTT7=
EXTT8=
EXTT9=
EXTT10=
EXTT11=
EXTT12=
EXTT13=
PLAYORDER=
